<?xml version="1.0" encoding="iso-8859-1"?>
<!-- Generator: Adobe Illustrator 19.0.0, SVG Export Plug-In . SVG Version: 6.00 Build 0)  -->
<svg version="1.1" id="Capa_1" xmlns="http://www.w3.org/2000/svg" xmlns:xlink="http://www.w3.org/1999/xlink" x="0px" y="0px"
	 viewBox="0 0 512 512" style="enable-background:new 0 0 512 512;" xml:space="preserve">
<polygon style="fill:#ED3B72;" points="465.455,116.364 465.455,69.818 418.909,69.818 418.909,23.273 372.364,23.273 
	325.818,23.273 325.818,69.818 279.273,69.818 279.273,116.364 232.727,116.364 232.727,69.818 186.182,69.818 186.182,23.273 
	139.636,23.273 93.091,23.273 93.091,69.818 46.545,69.818 46.545,116.364 0,116.364 0,162.909 0,209.455 0,256 46.545,256 
	46.545,302.545 93.091,302.545 93.091,349.091 139.636,349.091 139.636,395.636 186.182,395.636 186.182,442.182 232.727,442.182 
	232.727,488.727 279.273,488.727 279.273,442.182 325.818,442.182 325.818,395.636 372.364,395.636 372.364,349.091 
	418.909,349.091 418.909,302.545 465.455,302.545 465.455,256 512,256 512,209.455 512,162.909 512,116.364 "/>
<g>
	<polygon style="fill:#CE2562;" points="465.455,116.364 465.455,162.909 465.455,209.455 465.455,256 512,256 512,209.455 
		512,162.909 512,116.364 	"/>
	<rect x="418.91" y="256" style="fill:#CE2562;" width="46.545" height="46.545"/>
	<rect x="418.91" y="69.818" style="fill:#CE2562;" width="46.545" height="46.545"/>
	<rect x="372.36" y="302.55" style="fill:#CE2562;" width="46.545" height="46.545"/>
	<polygon style="fill:#CE2562;" points="418.909,69.818 418.909,23.273 372.364,23.273 325.818,23.273 325.818,69.818 
		372.364,69.818 	"/>
	<rect x="325.82" y="349.09" style="fill:#CE2562;" width="46.545" height="46.545"/>
	<rect x="279.27" y="395.64" style="fill:#CE2562;" width="46.545" height="46.545"/>
	<rect x="279.27" y="69.818" style="fill:#CE2562;" width="46.545" height="46.545"/>
	<rect x="232.73" y="442.18" style="fill:#CE2562;" width="46.545" height="46.545"/>
	<rect x="232.73" y="116.36" style="fill:#CE2562;" width="46.545" height="46.545"/>
	<rect x="186.18" y="395.64" style="fill:#CE2562;" width="46.545" height="46.545"/>
	<rect x="186.18" y="69.818" style="fill:#CE2562;" width="46.545" height="46.545"/>
	<rect x="139.64" y="349.09" style="fill:#CE2562;" width="46.545" height="46.545"/>
	<polygon style="fill:#CE2562;" points="186.182,69.818 186.182,23.273 139.636,23.273 93.091,23.273 93.091,69.818 139.636,69.818 
			"/>
	<rect x="93.09" y="302.55" style="fill:#CE2562;" width="46.545" height="46.545"/>
	<rect x="46.545" y="256" style="fill:#CE2562;" width="46.545" height="46.545"/>
	<rect x="46.545" y="69.818" style="fill:#CE2562;" width="46.545" height="46.545"/>
	<polygon style="fill:#CE2562;" points="46.545,162.909 46.545,116.364 0,116.364 0,162.909 0,209.455 0,256 46.545,256 
		46.545,209.455 	"/>
</g>
<g>
</g>
<g>
</g>
<g>
</g>
<g>
</g>
<g>
</g>
<g>
</g>
<g>
</g>
<g>
</g>
<g>
</g>
<g>
</g>
<g>
</g>
<g>
</g>
<g>
</g>
<g>
</g>
<g>
</g>
</svg>
