<?xml version="1.0"?>
<svg xmlns="http://www.w3.org/2000/svg" stroke="rgba(19,51,76,1)" width="3rem" height="3rem" viewBox="0 0 128 128"><g><path d="M59.2,52.361a8.713,8.713,0,0,0,9.6,0,1.75,1.75,0,0,0-1.848-2.972,5.247,5.247,0,0,1-5.9,0,1.75,1.75,0,1,0-1.85,2.971Z"/><path d="M103.665,82.619a7.745,7.745,0,0,0-5.858-2.677H95.75V78.53A13.765,13.765,0,0,0,82,64.78H73.647c-.013-.094-.016-.186-.033-.28l-.93-5.35A22.329,22.329,0,0,0,84.584,44.9,7.5,7.5,0,0,0,91.26,37.49a7.412,7.412,0,0,0-2.643-5.645C88.857,17.606,79.8,6.1,67.287,4.938c-12.9-1.207-19.775,3.651-23.279,7.932a24.217,24.217,0,0,0-4.871,19.185,7.381,7.381,0,0,0-2.4,5.435A7.5,7.5,0,0,0,43.416,44.9a22.329,22.329,0,0,0,11.9,14.249l-.93,5.351c-.017.094-.02.186-.033.279H46A13.765,13.765,0,0,0,32.25,78.53v1.412H30.193A7.752,7.752,0,0,0,22.522,88.8l4.764,32.949a1.751,1.751,0,0,0,1.733,1.5H98.981a1.751,1.751,0,0,0,1.733-1.5L105.478,88.8A7.746,7.746,0,0,0,103.665,82.619ZM46.717,15.087C51.031,9.815,57.845,7.58,66.963,8.422,77.4,9.394,85.016,19,85.127,31.028c-8.568.839-23.945-5.193-26.29-7.794a1.747,1.747,0,0,0-1.3-.579l-.086,0a1.756,1.756,0,0,0-1.323.71c-3.917,5.318-10.309,7.015-13.649,7.549A21.238,21.238,0,0,1,46.717,15.087ZM75.005,38.7a2.75,2.75,0,1,1-2.75-2.75A2.753,2.753,0,0,1,75.005,38.7ZM46.473,42.775a1.744,1.744,0,0,0-1.822-1.341c-.12.007-.242.016-.371.016a4.005,4.005,0,0,1-4.04-3.96,3.9,3.9,0,0,1,1.328-2.925c2.836-.3,10.815-1.655,16.22-7.7,2.754,1.888,7.869,4.112,13.347,5.689a6.264,6.264,0,0,0-4.876,4.394H61.741a6.25,6.25,0,1,0,0,3.5h4.518a6.247,6.247,0,1,0,9.819-6.684,31.806,31.806,0,0,0,10.169.645A3.917,3.917,0,0,1,87.76,37.49a4.005,4.005,0,0,1-4.04,3.96c-.129,0-.251-.009-.371-.016a1.742,1.742,0,0,0-1.822,1.341A18.9,18.9,0,0,1,70.094,56.437l-.04.017a17.268,17.268,0,0,1-12.108,0l-.04-.017A18.9,18.9,0,0,1,46.473,42.775ZM58.5,38.7a2.75,2.75,0,1,1-2.75-2.75A2.752,2.752,0,0,1,58.5,38.7ZM70.252,66.45a6.26,6.26,0,0,1-3.415,5.294,6.376,6.376,0,0,1-5.659,0c-.032-.016-.065-.031-.1-.045a6.269,6.269,0,0,1-3.333-5.264,5.991,5.991,0,0,1,.088-1.338l.824-4.743a20.928,20.928,0,0,0,10.682,0l.824,4.742A6,6,0,0,1,70.252,66.45ZM35.75,78.53A10.261,10.261,0,0,1,46,68.28h8.492a9.748,9.748,0,0,0,5.1,6.591c.039.021.079.038.12.056a9.731,9.731,0,0,0,13.8-6.647H82A10.261,10.261,0,0,1,92.25,78.53v1.412H35.75ZM102.013,88.3,97.466,119.75H30.534L25.987,88.3a4.25,4.25,0,0,1,4.206-4.859H97.807a4.25,4.25,0,0,1,4.206,4.859Z"/><path d="M95.912,100.8a1.753,1.753,0,0,0-1.983,1.481l-1.071,7.4a1.752,1.752,0,0,0,1.482,1.983,1.815,1.815,0,0,0,.253.018,1.752,1.752,0,0,0,1.73-1.5l1.071-7.4A1.752,1.752,0,0,0,95.912,100.8Z"/><path d="M70.38,100.154a4.248,4.248,0,0,1-3.3-4.192,1.75,1.75,0,0,0-1.342-1.917A7.678,7.678,0,0,0,64,93.85a7.75,7.75,0,1,0,7.739,8.082A1.751,1.751,0,0,0,70.38,100.154ZM64,105.85a4.25,4.25,0,0,1-.3-8.49,7.7,7.7,0,0,0,4.313,5.659A4.233,4.233,0,0,1,64,105.85Z"/></g></svg>
